# xmcd
#
# Track frame offsets:
# 150
# 17662
# 34387
# 52009
# 72203
# 93731
# 111099
# 126739
# 143697
# 161080
# 176795
# 193772
#
# Disc length: 2800 seconds
#
#
# Revision: 0
# Processed by: cddbd v1.5.1PL0 Copyright (c) Steve Scherf et al.
# Submitted via: FreeRIP 2.941 
#
DISCID=b70aee0c
DTITLE=แฮมเมอร์ - คิดถึงปักษ์ใต้
DYEAR=2005
DGENRE=Country
TTITLE0=อย่าท้อ (ทุกข์ เหงา)
TTITLE1=คิดถึงปักษ์ใต้
TTITLE2=ตุ๊กตาขาหัก
TTITLE3=ปักษ์ใต้รูเมาะฮ์กีตอ
TTITLE4=คนใกล้กัน
TTITLE5=รักไทยนิยมไทย
TTITLE6=ขอบคุณน้ำใจ
TTITLE7=ตะเกียงทอง
TTITLE8=สองเรา
TTITLE9=ทะเลสาบสงขลา-พัทลุง
TTITLE10=ยาดี
TTITLE11=จากใจลุ่มตานี
EXTD=
EXTT0=
EXTT1=
EXTT2=
EXTT3=
EXTT4=
EXTT5=
EXTT6=
EXTT7=
EXTT8=
EXTT9=
EXTT10=
EXTT11=
PLAYORDER=
